{
  "accessors": [
    {
      "bufferView": 2,
      "componentType": 5126,
      "count": 65532,
      "max": [
        98.66441345214844,
        726.7423095703125,
        319.1448059082031
      ],
      "min": [
        -85.00196838378906,
        5.54437255859375,
        -95.96894073486328
      ],
      "type": "VEC3"
    },
    {
      "bufferView": 2,
      "byteOffset": 786384,
      "componentType": 5126,
      "count": 65532,
      "max": [
        0.9999971389770508,
        0.9999633431434631,
        0.9997225999832153
      ],
      "min": [
        -0.9999318718910217,
        -0.9999088048934937,
        -0.9999983906745911
      ],
      "type": "VEC3"
    },
    {
      "bufferView": 1,
      "componentType": 5126,
      "count": 65532,
      "max": [
        0.997767984867096,
        0.9851189851760864
      ],
      "min": [
        0.0007440000190399587,
        0.0007980000227689743
      ],
      "type": "VEC2"
    },
    {
      "bufferView": 0,
      "componentType": 5125,
      "count": 65532,
      "type": "SCALAR"
    },
    {
      "bufferView": 2,
      "byteOffset": 1572768,
      "componentType": 5126,
      "count": 65532,
      "max": [
        78.5877685546875,
        718.8157348632813,
        328.7414245605469
      ],
      "min": [
        -84.78221130371094,
        4.20489501953125,
        -107.04389190673828
      ],
      "type": "VEC3"
    },
    {
      "bufferView": 2,
      "byteOffset": 2359152,
      "componentType": 5126,
      "count": 65532,
      "max": [
        0.9999842047691345,
        0.9998260736465454,
        0.9998081922531128
      ],
      "min": [
        -0.9999486804008484,
        -0.9999074339866638,
        -0.9998080134391785
      ],
      "type": "VEC3"
    },
    {
      "bufferView": 1,
      "byteOffset": 524256,
      "componentType": 5126,
      "count": 65532,
      "max": [
        0.9820860028266907,
        0.6912199854850769
      ],
      "min": [
        0.023065000772476196,
        0.0007800000021234155
      ],
      "type": "VEC2"
    },
    {
      "bufferView": 0,
      "byteOffset": 262128,
      "componentType": 5125,
      "count": 65532,
      "type": "SCALAR"
    },
    {
      "bufferView": 2,
      "byteOffset": 3145536,
      "componentType": 5126,
      "count": 65532,
      "max": [
        70.53277587890625,
        700.7855224609375,
        321.7850341796875
      ],
      "min": [
        -84.55180358886719,
        33.32318115234375,
        -107.71021270751953
      ],
      "type": "VEC3"
    },
    {
      "bufferView": 2,
      "byteOffset": 3931920,
      "componentType": 5126,
      "count": 65532,
      "max": [
        0.9999723434448242,
        0.9984034299850464,
        0.9999086260795593
      ],
      "min": [
        -0.9965166449546814,
        -0.9997701048851013,
        -0.9999622702598572
      ],
      "type": "VEC3"
    },
    {
      "bufferView": 1,
      "byteOffset": 1048512,
      "componentType": 5126,
      "count": 65532,
      "max": [
        0.951882004737854,
        0.734375
      ],
      "min": [
        0.13839299976825714,
        0.09306500107049942
      ],
      "type": "VEC2"
    },
    {
      "bufferView": 0,
      "byteOffset": 524256,
      "componentType": 5125,
      "count": 65532,
      "type": "SCALAR"
    },
    {
      "bufferView": 2,
      "byteOffset": 4718304,
      "componentType": 5126,
      "count": 65532,
      "max": [
        70.53277587890625,
        575.0238647460938,
        321.1589660644531
      ],
      "min": [
        -93.76881408691406,
        34.5234375,
        -109.9273452758789
      ],
      "type": "VEC3"
    },
    {
      "bufferView": 2,
      "byteOffset": 5504688,
      "componentType": 5126,
      "count": 65532,
      "max": [
        0.9997132420539856,
        0.9991669654846191,
        0.9999251961708069
      ],
      "min": [
        -0.9999954104423523,
        -0.999524712562561,
        -0.999965488910675
      ],
      "type": "VEC3"
    },
    {
      "bufferView": 1,
      "byteOffset": 1572768,
      "componentType": 5126,
      "count": 65532,
      "max": [
        0.9911410212516785,
        0.9992560148239136
      ],
      "min": [
        0.0007440000190399587,
        0.2977389991283417
      ],
      "type": "VEC2"
    },
    {
      "bufferView": 0,
      "byteOffset": 786384,
      "componentType": 5125,
      "count": 65532,
      "type": "SCALAR"
    },
    {
      "bufferView": 2,
      "byteOffset": 6291072,
      "componentType": 5126,
      "count": 65532,
      "max": [
        69.13452911376953,
        575.766357421875,
        291.8000793457031
      ],
      "min": [
        -92.65412902832031,
        37.923828125,
        -109.9273452758789
      ],
      "type": "VEC3"
    },
    {
      "bufferView": 2,
      "byteOffset": 7077456,
      "componentType": 5126,
      "count": 65532,
      "max": [
        0.9999570250511169,
        0.9996936321258545,
        0.9999571442604065
      ],
      "min": [
        -0.9999920725822449,
        -0.9999891519546509,
        -0.9999446868896484
      ],
      "type": "VEC3"
    },
    {
      "bufferView": 1,
      "byteOffset": 2097024,
      "componentType": 5126,
      "count": 65532,
      "max": [
        0.9978860020637512,
        0.9962049722671509
      ],
      "min": [
        0.23883900046348572,
        0.08466199785470963
      ],
      "type": "VEC2"
    },
    {
      "bufferView": 0,
      "byteOffset": 1048512,
      "componentType": 5125,
      "count": 65532,
      "type": "SCALAR"
    },
    {
      "bufferView": 2,
      "byteOffset": 7863840,
      "componentType": 5126,
      "count": 65532,
      "max": [
        79.99008178710938,
        722.8338623046875,
        314.73016357421875
      ],
      "min": [
        -85.0927734375,
        33.4676513671875,
        -26.984825134277344
      ],
      "type": "VEC3"
    },
    {
      "bufferView": 2,
      "byteOffset": 8650224,
      "componentType": 5126,
      "count": 65532,
      "max": [
        0.9999967813491821,
        0.9999443292617798,
        0.9999422430992126
      ],
      "min": [
        -0.9999068975448608,
        -0.9999149441719055,
        -0.9998765587806702
      ],
      "type": "VEC3"
    },
    {
      "bufferView": 1,
      "byteOffset": 2621280,
      "componentType": 5126,
      "count": 65532,
      "max": [
        0.9531919956207275,
        0.924107015132904
      ],
      "min": [
        0.006696000229567289,
        0.002142000012099743
      ],
      "type": "VEC2"
    },
    {
      "bufferView": 0,
      "byteOffset": 1310640,
      "componentType": 5125,
      "count": 65532,
      "type": "SCALAR"
    },
    {
      "bufferView": 2,
      "byteOffset": 9436608,
      "componentType": 5126,
      "count": 65532,
      "max": [
        64.08682250976563,
        721.3995361328125,
        285.46826171875
      ],
      "min": [
        -84.03578186035156,
        21.94403076171875,
        -100.50591278076172
      ],
      "type": "VEC3"
    },
    {
      "bufferView": 2,
      "byteOffset": 10222992,
      "componentType": 5126,
      "count": 65532,
      "max": [
        0.9999778270721436,
        0.999941885471344,
        0.999973714351654
      ],
      "min": [
        -0.9998085498809814,
        -0.9999445676803589,
        -0.9999738335609436
      ],
      "type": "VEC3"
    },
    {
      "bufferView": 1,
      "byteOffset": 3145536,
      "componentType": 5126,
      "count": 65532,
      "max": [
        0.9534119963645935,
        0.7938989996910095
      ],
      "min": [
        0.023065000772476196,
        0.0012120000319555402
      ],
      "type": "VEC2"
    },
    {
      "bufferView": 0,
      "byteOffset": 1572768,
      "componentType": 5125,
      "count": 65532,
      "type": "SCALAR"
    },
    {
      "bufferView": 2,
      "byteOffset": 11009376,
      "componentType": 5126,
      "count": 43740,
      "max": [
        82.85173034667969,
        722.8699951171875,
        328.6764221191406
      ],
      "min": [
        -82.82771301269531,
        9.55523681640625,
        -67.51972198486328
      ],
      "type": "VEC3"
    },
    {
      "bufferView": 2,
      "byteOffset": 11534256,
      "componentType": 5126,
      "count": 43740,
      "max": [
        0.9999107718467712,
        0.99965900182724,
        0.9995917081832886
      ],
      "min": [
        -0.9996881484985352,
        -0.9999119639396667,
        -0.9999505877494812
      ],
      "type": "VEC3"
    },
    {
      "bufferView": 1,
      "byteOffset": 3669792,
      "componentType": 5126,
      "count": 43740,
      "max": [
        0.9912779927253723,
        0.7983629703521729
      ],
      "min": [
        0.04836300015449524,
        0.0009159999899566174
      ],
      "type": "VEC2"
    },
    {
      "bufferView": 0,
      "byteOffset": 1834896,
      "componentType": 5125,
      "count": 43740,
      "type": "SCALAR"
    },
    {
      "bufferView": 2,
      "byteOffset": 12059136,
      "componentType": 5126,
      "count": 65532,
      "max": [
        31.047645568847656,
        235.27944946289063,
        5.123264312744141
      ],
      "min": [
        -78.85799407958984,
        -258.7331237792969,
        -312.4861145019531
      ],
      "type": "VEC3"
    },
    {
      "bufferView": 2,
      "byteOffset": 12845520,
      "componentType": 5126,
      "count": 65532,
      "max": [
        0.9999984502792358,
        0.9994999766349792,
        0.9998376369476318
      ],
      "min": [
        -0.9999890923500061,
        -0.9998379945755005,
        -0.999980092048645
      ],
      "type": "VEC3"
    },
    {
      "bufferView": 1,
      "byteOffset": 4019712,
      "componentType": 5126,
      "count": 65532,
      "max": [
        0.9722149968147278,
        0.9992190003395081
      ],
      "min": [
        0.0007810000097379088,
        0.0013490000274032354
      ],
      "type": "VEC2"
    },
    {
      "bufferView": 0,
      "byteOffset": 2009856,
      "componentType": 5125,
      "count": 65532,
      "type": "SCALAR"
    },
    {
      "bufferView": 2,
      "byteOffset": 13631904,
      "componentType": 5126,
      "count": 34362,
      "max": [
        16.14348602294922,
        128.35528564453125,
        5.123264312744141
      ],
      "min": [
        -60.25232696533203,
        -258.7179870605469,
        -312.5881652832031
      ],
      "type": "VEC3"
    },
    {
      "bufferView": 2,
      "byteOffset": 14044248,
      "componentType": 5126,
      "count": 34362,
      "max": [
        0.9999927878379822,
        0.9998921155929565,
        0.9997895956039429
      ],
      "min": [
        -0.997469425201416,
        -0.9999973177909851,
        -0.9998816847801208
      ],
      "type": "VEC3"
    },
    {
      "bufferView": 1,
      "byteOffset": 4543968,
      "componentType": 5126,
      "count": 34362,
      "max": [
        0.971572995185852,
        0.828125
      ],
      "min": [
        0.002343999920412898,
        0.008984999731183052
      ],
      "type": "VEC2"
    },
    {
      "bufferView": 0,
      "byteOffset": 2271984,
      "componentType": 5125,
      "count": 34362,
      "type": "SCALAR"
    },
    {
      "bufferView": 3,
      "componentType": 5126,
      "count": 224,
      "max": [
        10.833333015441895
      ],
      "min": [
        0.0416666679084301
      ],
      "type": "SCALAR"
    },
    {
      "bufferView": 4,
      "componentType": 5126,
      "count": 224,
      "max": [
        0.052770525217056274,
        0.991475522518158,
        0.1194082722067833,
        1.0
      ],
      "min": [
        -0.062305793166160583,
        -0.9915100336074829,
        -0.11839472502470016,
        -0.0025560667272657156
      ],
      "type": "VEC4"
    }
  ],
  "animations": [
    {
      "channels": [
        {
          "sampler": 0,
          "target": {
            "node": 12,
            "path": "rotation"
          }
        }
      ],
      "name": "Animation",
      "samplers": [
        {
          "input": 40,
          "interpolation": "LINEAR",
          "output": 41
        }
      ]
    }
  ],
  "asset": {
    "extras": {
      "author": "Natural History Museum Vienna (https://sketchfab.com/NHMWien)",
      "license": "CC-BY-NC-4.0 (http://creativecommons.org/licenses/by-nc/4.0/)",
      "source": "https://sketchfab.com/3d-models/arrau-turtle-skeleton-nhmw-zoo-hs-1904-eb70e34f13f94ce1a7aecec255af5828",
      "title": "Arrau Turtle Skeleton (NHMW-Zoo-HS 1904)"
    },
    "generator": "Sketchfab-11.72.0",
    "version": "2.0"
  },
  "bufferViews": [
    {
      "buffer": 0,
      "byteLength": 2409432,
      "name": "floatBufferViews",
      "target": 34963
    },
    {
      "buffer": 0,
      "byteLength": 4818864,
      "byteOffset": 2409432,
      "byteStride": 8,
      "name": "floatBufferViews",
      "target": 34962
    },
    {
      "buffer": 0,
      "byteLength": 14456592,
      "byteOffset": 7228296,
      "byteStride": 12,
      "name": "floatBufferViews",
      "target": 34962
    },
    {
      "buffer": 0,
      "byteLength": 896,
      "byteOffset": 21684888,
      "name": "floatBufferViews"
    },
    {
      "buffer": 0,
      "byteLength": 3584,
      "byteOffset": 21685784,
      "byteStride": 16,
      "name": "floatBufferViews"
    }
  ],
  "buffers": [
    {
      "byteLength": 21689368,
      "uri": "scene.bin"
    }
  ],
  "images": [
    {
      "uri": "textures/material_0_baseColor.png"
    },
    {
      "uri": "textures/material_0.001_baseColor.png"
    }
  ],
  "materials": [
    {
      "doubleSided": true,
      "name": "material_0",
      "pbrMetallicRoughness": {
        "baseColorTexture": {
          "index": 0
        },
        "metallicFactor": 0.0,
        "roughnessFactor": 0.7
      }
    },
    {
      "doubleSided": true,
      "name": "material_0.001",
      "pbrMetallicRoughness": {
        "baseColorTexture": {
          "index": 1
        },
        "metallicFactor": 0.0
      }
    }
  ],
  "meshes": [
    {
      "name": "Object_0",
      "primitives": [
        {
          "attributes": {
            "NORMAL": 1,
            "POSITION": 0,
            "TEXCOORD_0": 2
          },
          "indices": 3,
          "material": 0,
          "mode": 4
        }
      ]
    },
    {
      "name": "Object_1",
      "primitives": [
        {
          "attributes": {
            "NORMAL": 5,
            "POSITION": 4,
            "TEXCOORD_0": 6
          },
          "indices": 7,
          "material": 0,
          "mode": 4
        }
      ]
    },
    {
      "name": "Object_2",
      "primitives": [
        {
          "attributes": {
            "NORMAL": 9,
            "POSITION": 8,
            "TEXCOORD_0": 10
          },
          "indices": 11,
          "material": 0,
          "mode": 4
        }
      ]
    },
    {
      "name": "Object_3",
      "primitives": [
        {
          "attributes": {
            "NORMAL": 13,
            "POSITION": 12,
            "TEXCOORD_0": 14
          },
          "indices": 15,
          "material": 0,
          "mode": 4
        }
      ]
    },
    {
      "name": "Object_4",
      "primitives": [
        {
          "attributes": {
            "NORMAL": 17,
            "POSITION": 16,
            "TEXCOORD_0": 18
          },
          "indices": 19,
          "material": 0,
          "mode": 4
        }
      ]
    },
    {
      "name": "Object_5",
      "primitives": [
        {
          "attributes": {
            "NORMAL": 21,
            "POSITION": 20,
            "TEXCOORD_0": 22
          },
          "indices": 23,
          "material": 0,
          "mode": 4
        }
      ]
    },
    {
      "name": "Object_6",
      "primitives": [
        {
          "attributes": {
            "NORMAL": 25,
            "POSITION": 24,
            "TEXCOORD_0": 26
          },
          "indices": 27,
          "material": 0,
          "mode": 4
        }
      ]
    },
    {
      "name": "Object_7",
      "primitives": [
        {
          "attributes": {
            "NORMAL": 29,
            "POSITION": 28,
            "TEXCOORD_0": 30
          },
          "indices": 31,
          "material": 0,
          "mode": 4
        }
      ]
    },
    {
      "name": "Object_8",
      "primitives": [
        {
          "attributes": {
            "NORMAL": 33,
            "POSITION": 32,
            "TEXCOORD_0": 34
          },
          "indices": 35,
          "material": 1,
          "mode": 4
        }
      ]
    },
    {
      "name": "Object_9",
      "primitives": [
        {
          "attributes": {
            "NORMAL": 37,
            "POSITION": 36,
            "TEXCOORD_0": 38
          },
          "indices": 39,
          "material": 1,
          "mode": 4
        }
      ]
    }
  ],
  "nodes": [
    {
      "children": [
        1
      ],
      "matrix": [
        0.0016650435731663665,
        -7.353855475038511e-05,
        2.2068096393503937e-07,
        0.0,
        2.2587545807058237e-23,
        -5.00145729634677e-06,
        -0.0016666591571021239,
        0.0,
        7.353888381770278e-05,
        0.0016650360232445122,
        -4.996586479163588e-06,
        0.0,
        -50.09318542480469,
        2.0418868064880353,
        7.839258670806886,
        1.0
      ],
      "name": "Sketchfab_model"
    },
    {
      "children": [
        2
      ],
      "name": "root"
    },
    {
      "children": [
        3,
        12
      ],
      "matrix": [
        1.0,
        0.0,
        0.0,
        0.0,
        0.0,
        2.220446049250313e-16,
        1.0,
        0.0,
        0.0,
        -1.0,
        2.220446049250313e-16,
        0.0,
        0.0,
        0.0,
        0.0,
        1.0
      ],
      "name": "GLTF_SceneRootNode"
    },
    {
      "children": [
        4,
        5,
        6,
        7,
        8,
        9,
        10,
        11
      ],
      "name": "NHMW-Zoo1-1904-Arrau turtle Skeleton offen_low res_0"
    },
    {
      "mesh": 0,
      "name": "Object_4"
    },
    {
      "mesh": 1,
      "name": "Object_5"
    },
    {
      "mesh": 2,
      "name": "Object_6"
    },
    {
      "mesh": 3,
      "name": "Object_7"
    },
    {
      "mesh": 4,
      "name": "Object_8"
    },
    {
      "mesh": 5,
      "name": "Object_9"
    },
    {
      "mesh": 6,
      "name": "Object_10"
    },
    {
      "mesh": 7,
      "name": "Object_11"
    },
    {
      "children": [
        13,
        14
      ],
      "name": "NHMW-Zoo1-1904-Arrau turtle Skeleton offen_plastron_low res_1",
      "translation": [
        37.9638671875,
        378.9054260253906,
        -53.301483154296875
      ]
    },
    {
      "mesh": 8,
      "name": "Object_13"
    },
    {
      "mesh": 9,
      "name": "Object_14"
    }
  ],
  "samplers": [
    {
      "magFilter": 9729,
      "minFilter": 9987,
      "wrapS": 10497,
      "wrapT": 10497
    }
  ],
  "scene": 0,
  "scenes": [
    {
      "name": "Sketchfab_Scene",
      "nodes": [
        0
      ]
    }
  ],
  "textures": [
    {
      "sampler": 0,
      "source": 0
    },
    {
      "sampler": 0,
      "source": 1
    }
  ]
}
